<svg width="575" height="70" viewBox="0 0 575 70" xmlns="http://www.w3.org/2000/svg">
  <path fill="#A2BDE9" d="M354.88.37L324.7 17.7v34.67L354.9 69.7l30.16-17.33V17.7"/>
  <path fill="#6F95DB" d="M354.88 17.95l-14.96 8.6v17.2l14.96 8.58 14.96-8.6V26.56"/>
  <path d="M354.87.26L324.64 17.7l30.23 16.4L385.1 17.8M354.87 36.34L324.64 52.3l30.23 17.34L385 52.2" opacity=".06" fill="#FFF"/>
  <path d="M417.02 30.7c1.2 0 2.13.33 2.8.96.66.64 1.03 1.35 1.1 2.16h-1.25c-.14-.6-.43-1.1-.86-1.45-.4-.36-1-.54-1.77-.54-.94 0-1.7.33-2.27 1-.57.64-.86 1.65-.86 3 0 1.1.26 2 .78 2.7.52.7 1.3 1.04 2.32 1.04.95 0 1.67-.37 2.17-1.1.26-.38.46-.88.6-1.5H421c-.1 1-.47 1.83-1.1 2.5-.75.82-1.77 1.23-3.05 1.23-1.1 0-2.03-.34-2.78-1-1-.9-1.48-2.25-1.48-4.1 0-1.4.36-2.53 1.1-3.43.8-.97 1.9-1.46 3.32-1.46zm6.4 6.7c.03.53.16.97.4 1.3.4.63 1.17.94 2.24.94.5 0 .93-.06 1.32-.2.77-.27 1.15-.75 1.15-1.43 0-.5-.16-.88-.48-1.1-.33-.2-.84-.4-1.54-.56l-1.28-.3c-.84-.18-1.43-.4-1.78-.62-.6-.4-.9-.98-.9-1.77 0-.85.3-1.55.88-2.1.6-.54 1.43-.82 2.5-.82 1 0 1.85.24 2.54.73.7.47 1.05 1.24 1.05 2.3h-1.2c-.06-.5-.2-.9-.4-1.17-.4-.5-1.07-.76-2-.76-.77 0-1.32.16-1.65.48-.33.32-.5.7-.5 1.1 0 .48.2.82.6 1.03.24.14.82.3 1.7.52l1.35.3c.64.15 1.13.35 1.48.6.6.44.9 1.1.9 1.93 0 1.05-.38 1.8-1.14 2.25-.77.45-1.65.68-2.67.68-1.18 0-2.1-.3-2.77-.9-.67-.6-1-1.4-.98-2.44h1.2zm8.82 0c.04.53.16.97.4 1.3.4.63 1.17.94 2.24.94.5 0 .93-.06 1.32-.2.77-.27 1.15-.75 1.15-1.43 0-.5-.16-.88-.48-1.1-.33-.2-.84-.4-1.54-.56l-1.3-.3c-.83-.18-1.42-.4-1.77-.62-.6-.4-.9-.98-.9-1.77 0-.85.3-1.55.88-2.1.6-.54 1.43-.82 2.5-.82 1 0 1.85.24 2.54.73.7.47 1.05 1.24 1.05 2.3h-1.2c-.07-.5-.2-.9-.42-1.17-.4-.5-1.05-.76-2-.76-.75 0-1.3.16-1.63.48-.33.32-.5.7-.5 1.1 0 .48.2.82.6 1.03.24.14.82.3 1.7.52l1.35.3c.64.15 1.13.35 1.48.6.6.44.9 1.1.9 1.93 0 1.05-.38 1.8-1.14 2.25-.77.45-1.65.68-2.67.68-1.2 0-2.1-.3-2.78-.9-.67-.6-1-1.4-.98-2.44h1.2zm-19.26 10.1h1.84l2.73 8 2.7-8h1.84v9.47h-1.24v-5.6c0-.2 0-.5.02-.96v-1.43l-2.7 8h-1.27l-2.72-8v1.36l.03 1.04v5.6H413V47.5zm15.18-.27c1.67 0 2.92.54 3.72 1.62.63.84.95 1.9.95 3.22 0 1.4-.36 2.6-1.08 3.53-.85 1.1-2.05 1.65-3.62 1.65-1.46 0-2.6-.48-3.45-1.45-.74-.93-1.1-2.1-1.1-3.52 0-1.28.3-2.38.94-3.3.82-1.16 2.03-1.75 3.64-1.75zm.13 8.87c1.12 0 1.94-.4 2.44-1.2.5-.83.77-1.76.77-2.8 0-1.13-.3-2.03-.87-2.7-.58-.68-1.38-1.02-2.4-1.02-.98 0-1.78.33-2.4 1-.62.68-.93 1.67-.93 2.98 0 1.05.26 1.94.8 2.66.53.72 1.4 1.08 2.6 1.08zm6.1-8.6h3.86c1.3 0 2.32.45 3.04 1.38.64.83.96 1.9.96 3.2 0 1-.2 1.92-.57 2.74-.68 1.43-1.82 2.15-3.45 2.15h-3.84V47.5zm3.6 8.37c.44 0 .8-.04 1.07-.13.5-.17.9-.5 1.23-.97.26-.38.44-.87.55-1.47.07-.36.1-.7.1-1 0-1.17-.24-2.08-.7-2.73-.47-.65-1.22-.97-2.26-.97h-2.3v7.27h2.3zm7.32-8.38v5.85c0 .7.13 1.26.4 1.72.37.68 1.02 1.03 1.93 1.03 1.1 0 1.83-.37 2.22-1.12.2-.4.32-.95.32-1.63V47.5h1.3v5.3c0 1.18-.16 2.08-.48 2.7-.57 1.15-1.67 1.72-3.27 1.72s-2.7-.57-3.26-1.72c-.33-.62-.5-1.52-.5-2.7v-5.3h1.32zm8.15 0h1.3v8.34h4.8v1.13h-6.1V47.5zm7.5 0h6.92v1.15h-5.68v2.88h5.24v1.1h-5.24v3.2H468v1.14h-7.04V47.5zm9.56 6.4c.03.55.15 1 .38 1.32.43.63 1.2.94 2.26.94.5 0 .93-.07 1.32-.2.77-.27 1.15-.75 1.15-1.44 0-.5-.16-.88-.48-1.1-.33-.2-.84-.4-1.54-.56l-1.28-.3c-.84-.18-1.43-.4-1.78-.62-.6-.4-.9-.98-.9-1.77 0-.85.3-1.55.88-2.1.6-.54 1.43-.82 2.5-.82 1 0 1.85.24 2.54.73.7.47 1.05 1.24 1.05 2.3h-1.2c-.06-.52-.2-.9-.4-1.18-.4-.5-1.07-.74-2-.74-.77 0-1.3.16-1.65.48-.33.32-.5.7-.5 1.1 0 .47.2.8.6 1.03.24.14.82.3 1.7.52l1.35.3c.64.13 1.14.34 1.48.6.6.43.9 1.08.9 1.92 0 1.05-.37 1.8-1.14 2.25-.76.45-1.65.68-2.67.68-1.18 0-2.1-.3-2.77-.9-.67-.6-1-1.4-.98-2.44h1.2z"/>
  <path d="M464.68 8.27l-1-1v55l1-1h-55.12l1 1v-55l-1 1h55.12zm-56.06-1.94V63.2h57V6.34h-57z"/>
  <path d="M155.03 23.13V49.3h-3.45V23.12h-8.45v-3.1h20.37v3.1h-8.47zm12.2 29.5c-1.73 4.32-4.14 6.5-7.26 6.5-.87 0-1.6-.1-2.2-.28v-3c.74.24 1.4.37 2 .37 1.7 0 2.96-1 3.8-3.02l1.68-3.96-8.18-20.85h3.72l5.67 16.07c.07.2.2.74.43 1.6h.12c.07-.34.2-.85.4-1.56l5.96-16.1h3.48l-9.64 24.23zm15.04-6.36V58.9h-3.36V28.4h3.37v3.67h.08c1.66-2.78 4.07-4.16 7.25-4.16 2.7 0 4.8.94 6.32 2.8 1.52 1.88 2.28 4.38 2.28 7.53 0 3.5-.85 6.3-2.56 8.4-1.7 2.1-4.04 3.15-7 3.15-2.72 0-4.8-1.17-6.3-3.5h-.07zm0-5.5c0 1.72.57 3.18 1.7 4.4 1.1 1.2 2.55 1.8 4.28 1.8 2.03 0 3.63-.78 4.78-2.33 1.15-1.55 1.73-3.7 1.73-6.47 0-2.33-.54-4.15-1.62-5.46-1.08-1.3-2.54-1.97-4.38-1.97-1.95 0-3.52.68-4.7 2.03-1.2 1.34-1.8 3.04-1.8 5.08v2.92zm21.5-1.1c.04 2.33.67 4.13 1.87 5.4 1.2 1.26 2.85 1.9 4.96 1.9 2.35 0 4.53-.8 6.5-2.34v3.14c-1.83 1.34-4.27 2-7.3 2-2.96 0-5.3-.94-6.98-2.84-1.7-1.9-2.54-4.57-2.54-8 0-3.26.93-5.9 2.77-7.95 1.85-2.05 4.15-3.07 6.9-3.07 2.73 0 4.85.9 6.35 2.66 1.5 1.77 2.26 4.22 2.26 7.36v1.76h-14.8zm9.95-7.34c-.92-1.08-2.2-1.62-3.84-1.62-1.58 0-2.93.58-4.03 1.7-1.1 1.14-1.8 2.62-2.05 4.44h11.32c0-1.94-.48-3.44-1.4-4.5zm7.78 11.73c.42.4.93.78 1.52 1.1.6.33 1.22.6 1.88.83.65.2 1.3.4 1.97.5.66.13 1.27.2 1.83.2 1.94 0 3.4-.4 4.34-1.17.96-.8 1.43-1.9 1.43-3.38 0-.8-.15-1.48-.47-2.06-.33-.6-.76-1.13-1.33-1.6-.56-.5-1.22-.96-2-1.4l-2.47-1.4c-.94-.52-1.8-1.04-2.62-1.57-.8-.53-1.52-1.12-2.12-1.76-.6-.63-1.07-1.36-1.4-2.17-.36-.8-.52-1.75-.52-2.84 0-1.33.26-2.5.8-3.48s1.24-1.8 2.12-2.43c.87-.64 1.87-1.12 3-1.43 1.1-.3 2.24-.47 3.4-.47 2.65 0 4.58.35 5.8 1.04v3.84c-1.6-1.2-3.63-1.8-6.12-1.8-.68 0-1.37.1-2.06.24-.7.16-1.3.4-1.83.77-.54.35-.97.8-1.3 1.37-.35.55-.52 1.23-.52 2.04 0 .75.13 1.4.4 1.94.24.54.62 1.04 1.12 1.5.5.44 1.1.87 1.83 1.3.72.42 1.54.88 2.48 1.38.96.52 1.87 1.06 2.74 1.63.86.58 1.6 1.2 2.26 1.9.65.7 1.16 1.47 1.54 2.3.38.86.57 1.82.57 2.9 0 1.45-.26 2.67-.77 3.67-.52 1-1.22 1.8-2.1 2.44-.88.64-1.9 1.1-3.04 1.37-1.15.28-2.36.42-3.63.42-.43 0-.95-.05-1.58-.12-.62-.08-1.26-.2-1.9-.33-.66-.15-1.27-.32-1.85-.53-.6-.22-1.05-.46-1.4-.72v-4.04zm28.4 5.72c-2.97 0-5.4-.97-7.22-2.9-1.84-1.95-2.76-4.46-2.76-7.55 0-3.44 1-6.2 2.97-8.3 1.97-2.08 4.6-3.12 7.92-3.12 1.83 0 3.46.35 4.87 1.03v3.43c-1.57-1.1-3.23-1.63-5-1.63-2.15 0-3.9.76-5.28 2.3-1.36 1.53-2.05 3.53-2.05 6.02 0 2.45.64 4.4 1.93 5.8 1.3 1.4 3.02 2.12 5.2 2.12 1.82 0 3.53-.6 5.15-1.82v3.18c-1.62.96-3.53 1.45-5.74 1.45zm16.2-18.68c-1.44 0-2.64.68-3.6 2.02-.96 1.35-1.44 3.18-1.44 5.5V49.3h-3.36v-20.9h3.36v4.3h.08c.47-1.45 1.2-2.6 2.2-3.42.97-.83 2.07-1.24 3.28-1.24.88 0 1.54.1 2 .3v3.46c-.58-.45-1.42-.68-2.53-.68zm4.85-8.62c-.43-.4-.64-.92-.64-1.55s.22-1.14.65-1.56c.42-.4.93-.62 1.53-.62.62 0 1.14.2 1.57.62.43.42.65.93.65 1.56 0 .6-.22 1.1-.65 1.53-.43.4-.95.63-1.57.63-.6 0-1.1-.2-1.53-.62zm-.2 26.8V28.4h3.37v20.9h-3.36zm8.7-3V58.9h-3.36V28.4h3.35v3.67h.1c1.64-2.78 4.05-4.16 7.23-4.16 2.7 0 4.8.94 6.33 2.8 1.52 1.88 2.28 4.38 2.28 7.53 0 3.5-.85 6.3-2.56 8.4-1.7 2.1-4.04 3.15-7 3.15-2.72 0-4.8-1.17-6.28-3.5h-.1zm0-5.52c0 1.73.57 3.2 1.7 4.4 1.12 1.2 2.55 1.8 4.28 1.8 2.03 0 3.63-.77 4.78-2.32 1.17-1.55 1.74-3.7 1.74-6.47 0-2.33-.54-4.15-1.62-5.46-1.07-1.3-2.54-1.97-4.37-1.97-1.96 0-3.53.68-4.7 2.03-1.2 1.34-1.8 3.04-1.8 5.08v2.92zm25.36 8.97c-3.65 0-5.5-2.04-5.5-6.12V31.26h-3.6V28.4h3.6v-5.1l3.37-1.1v6.2h5.28v2.85h-5.28v11.77c0 1.4.23 2.4.7 3 .5.6 1.28.9 2.4.9.83 0 1.57-.23 2.18-.7v2.86c-.8.44-1.84.65-3.14.65z" fill="#007ACC"/>
  <path d="M563.4 39.27c-2.86 0-5.35.7-7.44 1.72-.76-1.52-1.53-2.87-1.67-3.86-.16-1.16-.34-1.86-.16-3.24.18-1.38 1-3.34.98-3.5 0-.14-.18-.84-1.83-.86-1.66 0-3.1.32-3.26.75-.16.42-.48 1.4-.7 2.43-.27 1.5-3.3 6.85-5.02 9.65-.55-1.1-1.03-2.05-1.14-2.8-.15-1.17-.33-1.87-.15-3.25.18-1.38 1-3.34.98-3.5 0-.14-.17-.85-1.83-.86-1.65-.02-3.07.3-3.24.75-.17.43-.35 1.45-.7 2.44-.34 1-4.35 9.92-5.4 12.23-.54 1.17-1 2.12-1.33 2.76l-.06.12-.45.85v.02c-.24.4-.48.78-.6.78-.1 0-.26-1.08.03-2.55.6-3.1 2.03-7.93 2-8.1 0-.08.28-.92-.92-1.35-1.16-.44-1.58.28-1.7.28-.1 0-.17.26-.17.26s1.3-5.42-2.5-5.42c-2.36 0-5.64 2.6-7.26 4.93l-5.53 3c-.88.5-1.8 1-2.65 1.47l-.2-.2c-4.6-4.9-13.1-8.36-12.73-14.94.14-2.4.96-8.7 16.33-16.33 12.64-6.22 22.7-4.5 24.45-.68 2.5 5.45-5.4 15.58-18.46 17.05-5 .55-7.6-1.37-8.27-2.1-.7-.74-.8-.78-1.05-.63-.42.22-.15.9 0 1.3.4 1 2 2.8 4.7 3.7 2.42.77 8.26 1.2 15.33-1.52 7.93-3.06 14.1-11.56 12.3-18.68-1.82-7.22-13.84-9.6-25.2-5.57-6.76 2.4-14.1 6.17-19.36 11.1-6.27 5.83-7.26 10.9-6.85 13.04 1.44 7.54 11.88 12.46 16.06 16.1-.2.12-.4.22-.57.3-2.1 1.05-10.06 5.2-12.04 9.6-2.26 4.96.36 8.53 2.08 9 5.37 1.5 10.88-1.17 13.84-5.58 2.96-4.4 2.6-10.13 1.23-12.75 0-.03-.02-.06-.05-.1.54-.3 1.1-.64 1.64-.95 1.05-.63 2.1-1.2 3-1.7-.5 1.4-.88 3.06-1.06 5.46-.23 2.82.93 6.47 2.45 7.9.66.64 1.46.66 1.97.66 1.77 0 2.57-1.47 3.45-3.2 1.08-2.14 2.06-4.6 2.06-4.6s-1.22 6.67 2.1 6.67c1.2 0 2.4-1.55 2.95-2.34v.02l.1-.15c.1-.2.18-.32.18-.32V54c.5-.84 1.57-2.74 3.18-5.9 2.07-4.08 4.07-9.17 4.07-9.17s.18 1.25.8 3.32c.36 1.2 1.1 2.55 1.7 3.83-.47.68-.77 1.05-.77 1.05v.02c-.38.5-.8 1.06-1.26 1.6-1.64 1.95-3.6 4.18-3.86 4.83-.32.76-.24 1.32.36 1.76.43.34 1.2.4 2 .34 1.48-.1 2.52-.46 3.03-.68.8-.3 1.73-.72 2.6-1.37 1.6-1.2 2.58-2.9 2.5-5.12-.06-1.23-.46-2.46-.96-3.6l.43-.64c2.54-3.7 4.5-7.76 4.5-7.76s.18 1.24.8 3.3c.3 1.06.92 2.2 1.46 3.3-2.4 1.94-3.87 4.2-4.4 5.66-.94 2.72-.2 3.95 1.2 4.24.62.13 1.52-.17 2.18-.45.84-.27 1.83-.74 2.78-1.43 1.6-1.18 3.15-2.83 3.06-5.06-.04-1.02-.3-2.02-.7-3 2.04-.84 4.65-1.3 8-.9 7.14.83 8.55 5.28 8.28 7.15-.27 1.86-1.77 2.88-2.27 3.2-.5.3-.66.42-.62.64.07.33.3.32.73.26.6-.1 3.76-1.52 3.9-4.96.22-4.4-4-9.22-11.42-9.17zm-55.14 18.55c-2.37 2.57-5.68 3.55-7.1 2.72-1.53-.88-.93-4.7 1.98-7.4 1.77-1.68 4.06-3.22 5.57-4.16.36-.2.87-.5 1.48-.9l.17-.08.36-.22c1.08 3.9.05 7.33-2.44 10.04zm17.27-11.72c-.82 2-2.55 7.15-3.6 6.86-.9-.24-1.46-4.13-.18-7.98.64-1.94 2-4.25 2.8-5.14 1.3-1.44 2.73-1.92 3.07-1.34.44.77-1.58 6.34-2.1 7.6zm14.26 6.8c-.36.18-.7.3-.84.2-.1-.05.15-.3.15-.3s1.8-1.9 2.5-2.77c.4-.5.9-1.1 1.4-1.8v.2c0 2.3-2.22 3.84-3.2 4.47zm10.98-2.5c-.26-.18-.2-.78.65-2.65.33-.74 1.1-1.97 2.44-3.15.15.48.26.94.24 1.38 0 2.9-2.07 3.97-3.32 4.42z" fill="#CD6799"/>
  <g transform="translate(0 10.138)" fill="#00D8FF">
    <ellipse cx="30.79" cy="27.22" rx="5.5" ry="5.47"/>
    <path d="M49.77 20.16c5.7 1.95 9.17 4.84 9.17 7.06 0 2.37-3.75 5.44-9.84 7.45-4.85 1.6-11.34 2.48-18.3 2.48-7.32 0-13.88-.86-18.68-2.5-3-1-5.47-2.34-7.17-3.8-1.53-1.3-2.3-2.58-2.3-3.63 0-2.23 3.34-5.07 8.9-7 5.14-1.8 12.05-2.8 19.24-2.8 7.1 0 13.84.98 18.97 2.74zM10.7 17.74C4.18 20 .02 23.54.02 27.22c0 3.8 4.47 7.6 11.25 9.92 5.1 1.73 11.94 2.62 19.52 2.62 7.22 0 13.98-.9 19.12-2.6 7.06-2.33 11.65-6.1 11.65-9.94 0-3.7-4.3-7.26-10.94-9.53-5.42-1.87-12.46-2.9-19.84-2.9-7.47 0-14.67 1.06-20.1 2.94z"/>
    <path d="M34.08 7.36c4.55-3.94 8.8-5.5 10.73-4.38 2.07 1.18 2.87 5.96 1.58 12.2-1.04 5-3.52 11.02-7 17.03-3.65 6.3-7.67 11.54-11.5 14.86-2.37 2.08-4.77 3.56-6.88 4.3-1.9.66-3.4.68-4.3.16-1.96-1.12-2.76-5.42-1.66-11.2 1-5.3 3.57-11.77 7.17-17.97 3.55-6.13 7.8-11.45 11.88-15zM12.46 39.84c-1.3 6.75-.3 12.1 2.9 13.95 3.32 1.88 8.86-.07 14.26-4.77 4.06-3.53 8.25-8.98 12.04-15.52 3.6-6.2 6.2-12.5 7.3-17.78 1.5-7.25.5-13.08-2.84-15-3.2-1.85-8.46.07-13.76 4.67-4.33 3.73-8.75 9.28-12.43 15.64-3.73 6.44-6.4 13.18-7.47 18.8z"/>
    <path d="M15.1 14.5c-1.16-5.9-.4-10.33 1.55-11.44 2.05-1.2 6.6.5 11.4 4.75 3.83 3.38 7.84 8.54 11.33 14.53 3.66 6.3 6.2 12.38 7.2 17.33.6 3.1.7 5.9.28 8.1-.36 1.95-1.1 3.26-2 3.8-1.95 1.1-6.1-.35-10.57-4.18-4.13-3.52-8.48-8.97-12.1-15.16-3.54-6.12-6.06-12.43-7.1-17.72zm17.47 34.87c5.23 4.48 10.4 6.3 13.6 4.44 3.3-1.9 4.37-7.64 2.98-14.65-1.05-5.26-3.7-11.6-7.5-18.13-3.62-6.22-7.8-11.6-11.85-15.17C24.24.95 18.67-1.13 15.33.8c-3.2 1.84-4.16 7.33-2.8 14.2 1.1 5.6 3.7 12.18 7.4 18.53 3.75 6.44 8.3 12.1 12.64 15.84z"/>
  </g>
  <g fill="#764ABC">
    <path d="M111.38 47.76c2-.2 3.52-1.92 3.45-4-.07-2.05-1.8-3.7-3.87-3.7h-.13c-2.15.07-3.8 1.86-3.73 4 .07 1.02.48 1.9 1.1 2.53-2.35 4.6-5.94 7.97-11.32 10.78-3.66 1.93-7.46 2.62-11.26 2.13-3.1-.4-5.52-1.77-7.04-4.04-2.2-3.37-2.42-7-.56-10.65 1.32-2.6 3.4-4.53 4.7-5.5-.28-.9-.7-2.4-.9-3.5-10 7.22-8.97 16.98-5.94 21.58 2.28 3.44 6.9 5.57 12.02 5.57 1.38 0 2.76-.14 4.14-.48 8.84-1.72 15.54-6.94 19.34-14.7z"/>
    <path d="M123.53 39.24c-5.25-6.12-12.98-9.5-21.82-9.5h-1.1c-.62-1.23-1.93-2.05-3.38-2.05h-.14c-2.14.06-3.8 1.85-3.73 3.98.07 2.06 1.8 3.7 3.87 3.7h.14c1.52-.06 2.83-1.02 3.38-2.33H102c5.23 0 10.2 1.5 14.7 4.47 3.45 2.27 5.93 5.22 7.3 8.8 1.2 2.88 1.12 5.7-.12 8.1-1.94 3.65-5.18 5.64-9.46 5.64-2.77 0-5.4-.82-6.77-1.44-.76.7-2.14 1.8-3.1 2.48 2.96 1.37 6 2.13 8.9 2.13 6.63 0 11.53-3.65 13.4-7.3 2-3.98 1.86-10.85-3.32-16.7z"/>
    <path d="M88.45 48.93c.07 2.06 1.8 3.7 3.87 3.7h.14c2.14-.06 3.8-1.84 3.73-3.98-.08-2.06-1.8-3.7-3.88-3.7h-.14c-.14 0-.34 0-.48.06-2.83-4.66-4-9.75-3.6-15.25.28-4.12 1.66-7.7 4.08-10.65 2-2.55 5.87-3.78 8.5-3.85 7.3-.14 10.42 8.93 10.63 12.58.9.2 2.43.68 3.46 1.03-.83-11.14-7.73-16.9-14.36-16.9-6.22 0-11.95 4.46-14.23 11.06-3.17 8.8-1.1 17.25 2.77 23.92-.35.48-.56 1.23-.5 2z"/>
  </g>
</svg>
