<svg width="237" height="193" viewBox="0 0 237 193" xmlns="http://www.w3.org/2000/svg">
  <defs>
    <linearGradient x1="20.58%" y1="2.47%" x2="65.85%" y2="92.63%" id="a">
      <stop stop-color="#292E3A" offset="0%"/>
      <stop offset="100%"/>
    </linearGradient>
    <linearGradient x1="36.93%" y1="-55.87%" x2="30.44%" y2="136.54%" id="b">
      <stop stop-color="#29333D" offset="0%"/>
      <stop offset="100%"/>
    </linearGradient>
  </defs>
  <g fill="none" fill-rule="evenodd">
    <path fill="url(#a)" d="M53.72 0l8.38 116.88H0L8.38 0" transform="translate(86.912)"/>
    <path fill="url(#b)" transform="matrix(1 0 0 -1 86.912 246.222)" d="M53.72 117.94l8.38 10.34H0l8.38-10.34"/>
    <path d="M.2 180.66v-34.3h8.34v27.08h13.3v7.22H.2zm31.7-31.84c0 .6-.13 1.2-.37 1.72-.25.53-.57 1-.98 1.38-.4.4-.9.7-1.45.92-.57.23-1.16.34-1.77.34-1.3 0-2.38-.43-3.26-1.28-.87-.86-1.3-1.9-1.3-3.08 0-.58.1-1.14.33-1.67.23-.54.55-1 .97-1.38.43-.4.9-.7 1.46-.95.55-.24 1.15-.36 1.8-.36.6 0 1.2.1 1.77.34.56.22 1.05.53 1.45.92.4.4.73.85.98 1.38.24.53.36 1.1.36 1.72zm-8.55 31.84v-24.14h7.96v24.14h-7.95zm37.86-2.28c0 2.36-.33 4.4-1 6.15-.7 1.75-1.64 3.2-2.87 4.34-1.23 1.15-2.73 2-4.5 2.57-1.76.57-3.7.85-5.84.85-2.15 0-4.34-.34-6.6-.98-2.24-.65-4.2-1.58-5.84-2.8l3.98-5.68c1.17 1.03 2.45 1.8 3.86 2.3 1.4.5 2.8.75 4.15.75 2.33 0 4.05-.62 5.17-1.85s1.67-2.86 1.67-4.9v-1.45h-.15c-.75.97-1.75 1.75-3 2.33-1.27.58-2.7.87-4.33.87-1.85 0-3.48-.33-4.9-1-1.43-.66-2.63-1.55-3.62-2.68-1-1.13-1.74-2.45-2.26-3.95-.52-1.5-.77-3.1-.77-4.78 0-1.7.25-3.3.77-4.8.52-1.52 1.27-2.86 2.26-4.03 1-1.16 2.2-2.1 3.62-2.78 1.42-.7 3.04-1.05 4.85-1.05 1.52 0 2.98.3 4.37.92 1.4.6 2.5 1.56 3.35 2.86h.1v-3.1h7.5v21.85zm-7.56-9.93c0-.8-.14-1.6-.42-2.33-.27-.74-.67-1.4-1.2-1.96-.5-.57-1.12-1-1.83-1.34-.72-.32-1.53-.48-2.44-.48-.9 0-1.7.16-2.4.48-.7.33-1.3.76-1.77 1.3-.5.56-.87 1.2-1.13 1.95-.26.74-.4 1.54-.4 2.38 0 .8.14 1.58.4 2.32.26.74.63 1.4 1.12 1.96.47.57 1.06 1.02 1.76 1.36.7.33 1.5.5 2.4.5.9 0 1.73-.17 2.45-.5.74-.35 1.36-.8 1.86-1.34.5-.55.9-1.2 1.16-1.94.28-.74.42-1.53.42-2.37zm27.76 12.2v-13.08c0-.68-.05-1.32-.14-1.94-.1-.6-.3-1.15-.56-1.62-.28-.46-.64-.83-1.1-1.1-.45-.28-1.03-.42-1.74-.42-1.4 0-2.46.5-3.2 1.48-.75 1-1.12 2.2-1.12 3.66v13.04h-7.96v-36.64h7.96v15.56h.1c.55-.97 1.42-1.84 2.62-2.6 1.2-.75 2.64-1.13 4.32-1.13 1.65 0 3.03.3 4.15.87 1.1.58 2.02 1.33 2.72 2.25.7.92 1.2 1.98 1.5 3.18.3 1.2.46 2.4.46 3.58v14.93h-8zm20.63-18.17v9.2c0 1.14.22 2 .66 2.56.43.56 1.2.84 2.34.84.4 0 .8-.03 1.24-.1.44-.06.8-.15 1.1-.28l.1 5.8c-.56.2-1.26.38-2.1.52-.84.15-1.68.22-2.52.22-1.62 0-2.98-.2-4.08-.6-1.1-.4-1.98-1-2.64-1.75-.67-.77-1.14-1.68-1.44-2.73-.3-1.05-.43-2.22-.43-3.5v-10.2h-3.9v-5.95h3.85v-6.34h7.8v6.34h5.7v5.96H102zm38.06 13.43c-1.53 1.75-3.4 3.13-5.64 4.15-2.23 1.02-4.8 1.53-7.72 1.53-2.65 0-5.1-.44-7.35-1.3-2.26-.88-4.2-2.12-5.86-3.72-1.65-1.6-2.95-3.5-3.88-5.74-.94-2.23-1.4-4.68-1.4-7.37 0-2.74.47-5.23 1.42-7.46.95-2.24 2.27-4.14 3.96-5.7 1.68-1.57 3.65-2.77 5.92-3.6 2.26-.85 4.7-1.27 7.33-1.27 2.4 0 4.8.42 7.15 1.28 2.34.87 4.24 2.12 5.7 3.77l-5.63 5.62c-.78-1.08-1.8-1.87-3.06-2.4-1.26-.5-2.55-.76-3.88-.76-1.46 0-2.8.26-4 .8-1.22.53-2.26 1.27-3.14 2.2-.87.94-1.55 2.05-2.04 3.32-.48 1.28-.72 2.68-.72 4.2 0 1.54.24 2.97.72 4.26.5 1.3 1.16 2.4 2.02 3.32.86.92 1.88 1.64 3.08 2.15 1.2.5 2.5.77 3.93.77 1.65 0 3.1-.32 4.32-.97 1.23-.65 2.22-1.5 2.96-2.52l5.8 5.43zm13.83 8.4c-.5 1.25-1.03 2.37-1.63 3.36-.6 1-1.3 1.83-2.14 2.52-.82.7-1.8 1.22-2.9 1.57-1.13.36-2.44.54-3.96.54-.75 0-1.52-.06-2.3-.16-.8-.1-1.5-.22-2.07-.4l.87-6.67c.4.13.82.23 1.3.3.46.1.88.13 1.27.13 1.23 0 2.12-.28 2.67-.84.55-.57 1.02-1.37 1.4-2.4l.8-2-10.1-23.74h8.83l5.38 15.5h.15l4.8-15.5h8.45l-10.82 27.77zm28.5-19.97c-.46-.6-1.08-1.05-1.85-1.4-.78-.36-1.57-.54-2.38-.54-.84 0-1.6.16-2.28.5-.68.34-1.27.8-1.75 1.35-.5.57-.87 1.22-1.14 1.97-.28.74-.42 1.53-.42 2.37 0 .83.14 1.62.4 2.37.26.74.64 1.4 1.14 1.96.5.56 1.1 1 1.8 1.33.7.32 1.48.5 2.35.5.8 0 1.6-.17 2.4-.48.8-.3 1.43-.75 1.9-1.33l4.43 5.38c-1 .97-2.3 1.73-3.88 2.28-1.6.56-3.27.83-5.05.83-1.9 0-3.7-.3-5.34-.87-1.65-.58-3.08-1.43-4.3-2.54-1.2-1.12-2.16-2.47-2.86-4.05-.7-1.58-1.04-3.38-1.04-5.38 0-1.98.34-3.76 1.04-5.34s1.65-2.93 2.86-4.05c1.22-1.1 2.65-1.96 4.3-2.55 1.65-.6 3.4-.9 5.3-.9.87 0 1.73.08 2.6.24.85.15 1.67.37 2.46.65.8.27 1.53.6 2.2 1 .65.42 1.23.86 1.7 1.35l-4.6 5.33zm5.82 16.33v-36.64h8.05v36.64h-8.05zm28.98-14.83c0-1.26-.4-2.34-1.2-3.25-.8-.9-1.98-1.36-3.56-1.36-.78 0-1.5.13-2.14.37-.64.23-1.2.56-1.7.98-.48.42-.87.9-1.16 1.48-.3.57-.45 1.15-.5 1.77h10.26zm7.33 3.05v.97c0 .32-.02.63-.05.92H207c.07.68.27 1.3.6 1.84.35.56.8 1.04 1.32 1.44.53.4 1.13.72 1.8.95.66.2 1.35.33 2.06.33 1.26 0 2.33-.24 3.2-.7.88-.47 1.6-1.08 2.14-1.82l5.53 3.5c-1.13 1.64-2.63 2.9-4.5 3.8-1.85.9-4 1.33-6.47 1.33-1.8 0-3.52-.28-5.14-.85-1.62-.56-3.04-1.38-4.25-2.47-1.2-1.07-2.17-2.4-2.86-3.98-.7-1.6-1.04-3.4-1.04-5.43 0-1.98.34-3.77 1.02-5.37.68-1.6 1.6-2.95 2.77-4.07 1.16-1.1 2.54-1.98 4.12-2.6 1.6-.6 3.3-.9 5.15-.9 1.78 0 3.4.3 4.9.9 1.5.58 2.77 1.45 3.84 2.58 1.07 1.13 1.9 2.5 2.5 4.12.6 1.6.9 3.45.9 5.52zm12 7.5c0 1.37-.5 2.5-1.45 3.4-.94.9-2.08 1.36-3.4 1.36-.7 0-1.33-.12-1.93-.36-.6-.24-1.12-.57-1.57-1-.46-.4-.8-.9-1.07-1.47-.26-.56-.4-1.18-.4-1.86 0-.64.14-1.26.4-1.84.26-.58.6-1.1 1.07-1.53.45-.43.98-.78 1.57-1.04.6-.26 1.24-.4 1.92-.4 1.32 0 2.46.47 3.4 1.37.97.9 1.45 2.04 1.45 3.4z" fill="#000"/>
  </g>
</svg>
